<svg width="24" height="24" viewBox="0 0 24 24" fill="none" xmlns="http://www.w3.org/2000/svg">
<path d="M23.1428 17.9999V7.71422C23.1428 7.71422 12.7428 14.9714 11.7314 15.3479C10.7371 14.9885 0.285645 7.71422 0.285645 7.71422V17.9999C0.285645 19.4285 0.588502 19.7142 1.99993 19.7142H21.4285C22.8736 19.7142 23.1428 19.4634 23.1428 17.9999ZM23.1262 5.69764C23.1262 4.65707 22.8228 4.28564 21.4285 4.28564H1.99993C0.565645 4.28564 0.285645 4.73136 0.285645 5.77136L0.302787 5.93136C0.302787 5.93136 10.6279 13.0399 11.7314 13.4285C12.8971 12.9771 23.1428 5.77136 23.1428 5.77136L23.1262 5.69764Z" fill="white"/>
</svg>
