<svg width="24" height="24" viewBox="0 0 24 24" fill="none" xmlns="http://www.w3.org/2000/svg">
    <path d="M12.0002 1.92847C16.6159 1.92847 20.3574 5.6699 20.3574 10.2856C20.3574 13.817 17.8759 17.6656 12.9774 21.8725C12.705 22.1065 12.3577 22.235 11.9986 22.2347C11.6395 22.2343 11.2925 22.1052 11.0205 21.8708L10.6965 21.5896C6.01478 17.4925 3.64307 13.7382 3.64307 10.2856C3.64307 5.6699 7.3845 1.92847 12.0002 1.92847ZM12.0002 7.07132C11.1477 7.07132 10.3302 7.40997 9.72737 8.01277C9.12457 8.61556 8.78592 9.43313 8.78592 10.2856C8.78592 11.1381 9.12457 11.9557 9.72737 12.5585C10.3302 13.1612 11.1477 13.4999 12.0002 13.4999C12.8527 13.4999 13.6703 13.1612 14.2731 12.5585C14.8758 11.9557 15.2145 11.1381 15.2145 10.2856C15.2145 9.43313 14.8758 8.61556 14.2731 8.01277C13.6703 7.40997 12.8527 7.07132 12.0002 7.07132Z"
          fill="white"/>
</svg>
