<svg width="66" height="52" viewBox="0 0 66 52" fill="none" xmlns="http://www.w3.org/2000/svg">
    <path d="M5.51619 7.449C10.0759 2.50575 16.9757 0 26.0204 0H29.2704V9.16175L26.6574 9.685C22.2049 10.5755 19.1077 12.3272 17.4502 14.898C16.5853 16.2829 16.0948 17.8686 16.0267 19.5H26.0204C26.8824 19.5 27.709 19.8424 28.3185 20.4519C28.928 21.0614 29.2704 21.888 29.2704 22.75V45.5C29.2704 49.0848 26.3552 52 22.7704 52H3.27044C2.40848 52 1.58183 51.6576 0.972338 51.0481C0.362845 50.4386 0.0204355 49.612 0.0204355 48.75V32.5L0.0301855 23.0133C0.00093552 22.6525 -0.616565 14.105 5.51619 7.449ZM58.5204 52H39.0204C38.1585 52 37.3318 51.6576 36.7223 51.0481C36.1128 50.4386 35.7704 49.612 35.7704 48.75V32.5L35.7802 23.0133C35.7509 22.6525 35.1334 14.105 41.2662 7.449C45.8259 2.50575 52.7257 0 61.7704 0H65.0204V9.16175L62.4074 9.685C57.9549 10.5755 54.8577 12.3272 53.2002 14.898C52.3353 16.2829 51.8448 17.8686 51.7767 19.5H61.7704C62.6324 19.5 63.459 19.8424 64.0685 20.4519C64.678 21.0614 65.0204 21.888 65.0204 22.75V45.5C65.0204 49.0848 62.1052 52 58.5204 52Z"
          fill="#fd7e14" fill-opacity="0.3"/>
</svg>
