<svg width="66" height="52" viewBox="0 0 66 52" fill="none" xmlns="http://www.w3.org/2000/svg">
    <path d="M59.5043 44.551C54.9446 49.4942 48.0448 52 39.0001 52L35.7501 52L35.7501 42.8382L38.3631 42.315C42.8156 41.4245 45.9128 39.6727 47.5703 37.102C48.4352 35.7171 48.9257 34.1314 48.9938 32.5L39.0001 32.5C38.1381 32.5 37.3115 32.1576 36.702 31.5481C36.0925 30.9386 35.7501 30.112 35.7501 29.25L35.7501 6.5C35.7501 2.91525 38.6653 -2.30404e-06 42.2501 -1.99065e-06L61.7501 -2.85911e-07C62.612 -2.10556e-07 63.4387 0.342407 64.0482 0.9519C64.6577 1.56139 65.0001 2.38805 65.0001 3.25L65.0001 19.5L64.9903 28.9867C65.0196 29.3475 65.6371 37.895 59.5043 44.551ZM6.50007 -5.11602e-06L26.0001 -3.41127e-06C26.862 -3.33592e-06 27.6887 0.342404 28.2982 0.951897C28.9077 1.56139 29.2501 2.38804 29.2501 3.25L29.2501 19.5L29.2403 28.9867C29.2696 29.3475 29.8871 37.895 23.7543 44.551C19.1946 49.4942 12.2948 52 3.25007 52L6.86646e-05 52L6.94655e-05 42.8382L2.61307 42.315C7.06558 41.4245 10.1628 39.6727 11.8203 37.102C12.6852 35.7171 13.1757 34.1314 13.2438 32.5L3.25007 32.5C2.38812 32.5 1.56146 32.1576 0.951975 31.5481C0.342478 30.9386 7.05781e-05 30.1119 7.06534e-05 29.25L7.26423e-05 6.49999C7.29557e-05 2.91524 2.91533 -5.42941e-06 6.50007 -5.11602e-06Z"
          fill="#fd7e14" fill-opacity="0.3"/>
</svg>
